{
    "asset": {
        "version": "2.0",
        "generator": "Open Asset Import Library (assimp v5.4.53b5dba4)"
    },
    "extensionsUsed": [
        "KHR_materials_volume",
        "FB_ngon_encoding"
    ],
    "accessors": [
        {
            "bufferView": 0,
            "byteOffset": 0,
            "componentType": 5126,
            "count": 24,
            "type": "VEC3",
            "max": [
                0.01000000350177288,
                0.01000000350177288,
                0.009999999776482582
            ],
            "min": [
                -0.010000004433095455,
                -0.01000000536441803,
                -0.009999999776482582
            ]
        },
        {
            "bufferView": 1,
            "byteOffset": 0,
            "componentType": 5126,
            "count": 24,
            "type": "VEC3",
            "max": [
                1.0,
                1.0,
                1.0
            ],
            "min": [
                -1.0,
                -1.0,
                -1.0
            ]
        },
        {
            "bufferView": 2,
            "byteOffset": 0,
            "componentType": 5126,
            "count": 24,
            "type": "VEC3",
            "max": [
                1.0,
                0.0,
                -0.0
            ],
            "min": [
                1.0,
                0.0,
                -0.0
            ]
        },
        {
            "bufferView": 3,
            "byteOffset": 0,
            "componentType": 5125,
            "count": 36,
            "type": "SCALAR",
            "max": [
                23
            ],
            "min": [
                0
            ]
        },
        {
            "bufferView": 4,
            "byteOffset": 0,
            "componentType": 5126,
            "count": 24,
            "type": "VEC3",
            "max": [
                0.0,
                0.018932530656456947,
                0.0
            ],
            "min": [
                0.0,
                0.0,
                0.0
            ]
        },
        {
            "bufferView": 5,
            "byteOffset": 0,
            "componentType": 5126,
            "count": 24,
            "type": "VEC3",
            "max": [
                0.0,
                0.019890835508704185,
                0.0
            ],
            "min": [
                0.0,
                0.0,
                0.0
            ]
        }
    ],
    "animations": [
        {
            "name": "Square",
            "channels": [],
            "samplers": []
        }
    ],
    "buffers": [
        {
            "byteLength": 1584,
            "uri": "AnimatedMorphCube.bin"
        }
    ],
    "bufferViews": [
        {
            "buffer": 0,
            "byteOffset": 0,
            "byteLength": 288,
            "target": 34962
        },
        {
            "buffer": 0,
            "byteOffset": 288,
            "byteLength": 288,
            "target": 34962
        },
        {
            "buffer": 0,
            "byteOffset": 576,
            "byteLength": 288,
            "target": 34962
        },
        {
            "buffer": 0,
            "byteOffset": 864,
            "byteLength": 144,
            "target": 34963
        },
        {
            "buffer": 0,
            "byteOffset": 1008,
            "byteLength": 288
        },
        {
            "buffer": 0,
            "byteOffset": 1296,
            "byteLength": 288
        }
    ],
    "materials": [
        {
            "name": "Material",
            "pbrMetallicRoughness": {
                "baseColorFactor": [
                    0.6038274168968201,
                    0.6038274168968201,
                    0.6038274168968201,
                    1.0
                ],
                "metallicFactor": 0.0,
                "roughnessFactor": 0.5
            }
        },
        {
            "name": "material"
        }
    ],
    "meshes": [
        {
            "name": "Cube",
            "primitives": [
                {
                    "mode": 4,
                    "material": 0,
                    "indices": 3,
                    "attributes": {
                        "POSITION": 0,
                        "NORMAL": 1,
                        "TANGENT": 2
                    },
                    "targets": [
                        {
                            "POSITION": 4
                        },
                        {
                            "POSITION": 5
                        }
                    ]
                }
            ]
        }
    ],
    "nodes": [
        {
            "name": "AnimatedMorphCube",
            "matrix": [
                -100.0,
                0.0,
                0.0,
                0.0,
                0.0,
                -0.000011920928955078125,
                -99.99999237060547,
                0.0,
                0.0,
                -99.99999237060547,
                0.000017881393432617188,
                0.0,
                0.0,
                0.0,
                0.0,
                1.0
            ],
            "mesh": 0
        }
    ],
    "scenes": [
        {
            "nodes": [
                0
            ]
        }
    ],
    "scene": 0
}