{
    "asset": {
        "version": "1.0",
        "generator": "Open Asset Import Library (assimp v5.4.53b5dba4)"
    },
    "accessors": {
        "Cube_accessor": {
            "bufferView": "Cube_view",
            "byteOffset": 0,
            "byteStride": 0,
            "componentType": 5126,
            "count": 24,
            "type": "VEC3",
            "max": [
                0.01000000350177288,
                0.01000000350177288,
                0.009999999776482582
            ],
            "min": [
                -0.010000004433095455,
                -0.01000000536441803,
                -0.009999999776482582
            ]
        },
        "Cube_accessor_0": {
            "bufferView": "Cube_view_0",
            "byteOffset": 0,
            "byteStride": 0,
            "componentType": 5126,
            "count": 24,
            "type": "VEC3",
            "max": [
                1.0,
                1.0,
                1.0
            ],
            "min": [
                -1.0,
                -1.0,
                -1.0
            ]
        },
        "Cube_accessor_1": {
            "bufferView": "Cube_view_1",
            "byteOffset": 0,
            "byteStride": 0,
            "componentType": 5123,
            "count": 36,
            "type": "SCALAR",
            "max": [
                23
            ],
            "min": [
                0
            ]
        }
    },
    "buffers": {
        "../out/AnimatedMorphCube": {
            "byteLength": 648,
            "type": "arraybuffer",
            "uri": "../out/AnimatedMorphCube.bin"
        }
    },
    "bufferViews": {
        "Cube_view": {
            "buffer": "../out/AnimatedMorphCube",
            "byteOffset": 0,
            "byteLength": 288,
            "target": 34962
        },
        "Cube_view_0": {
            "buffer": "../out/AnimatedMorphCube",
            "byteOffset": 288,
            "byteLength": 288,
            "target": 34962
        },
        "Cube_view_1": {
            "buffer": "../out/AnimatedMorphCube",
            "byteOffset": 576,
            "byteLength": 72,
            "target": 34963
        }
    },
    "materials": {
        "Material": {
            "values": {
                "ambient": [
                    0.0,
                    0.0,
                    0.0,
                    1.0
                ],
                "diffuse": [
                    0.6038274168968201,
                    0.6038274168968201,
                    0.6038274168968201,
                    1.0
                ],
                "specular": [
                    0.0,
                    0.0,
                    0.0,
                    1.0
                ],
                "emission": [
                    0.0,
                    0.0,
                    0.0,
                    1.0
                ],
                "shininess": 250.0
            }
        },
        "material": {
            "values": {
                "ambient": [
                    0.0,
                    0.0,
                    0.0,
                    1.0
                ],
                "diffuse": [
                    1.0,
                    1.0,
                    1.0,
                    1.0
                ],
                "specular": [
                    0.0,
                    0.0,
                    0.0,
                    1.0
                ],
                "emission": [
                    0.0,
                    0.0,
                    0.0,
                    1.0
                ],
                "shininess": 0.0
            }
        }
    },
    "meshes": {
        "Cube": {
            "name": "",
            "primitives": [
                {
                    "mode": 4,
                    "material": "Material",
                    "indices": "Cube_accessor_1",
                    "attributes": {
                        "POSITION": "Cube_accessor",
                        "NORMAL": "Cube_accessor_0"
                    }
                }
            ]
        }
    },
    "nodes": {
        "AnimatedMorphCube": {
            "matrix": [
                -100.0,
                0.0,
                0.0,
                0.0,
                0.0,
                -0.000011920928955078125,
                -99.99999237060547,
                0.0,
                0.0,
                -99.99999237060547,
                0.000017881393432617188,
                0.0,
                0.0,
                0.0,
                0.0,
                1.0
            ],
            "meshes": [
                "Cube"
            ]
        }
    },
    "scenes": {
        "defaultScene": {
            "nodes": [
                "AnimatedMorphCube"
            ]
        }
    },
    "scene": "defaultScene"
}